<svg width="75" height="85" viewBox="0 0 75 85" fill="none" xmlns="http://www.w3.org/2000/svg">
<path d="M36.8849 16.9219V18.4133C36.8849 19.5426 37.0482 20.6659 37.3698 21.7487L37.7657 23.0828C37.9955 23.8565 38.3928 24.5703 38.9302 25.1734C39.9753 26.3472 41.4738 27.0185 43.0471 27.0185H44.262H45.0035C46.9356 27.0185 48.8349 26.5221 50.5188 25.5766C52.0633 24.7096 53.3808 23.4905 54.3636 22.0189L55.1117 20.899C55.8815 19.7464 56.5061 18.5035 56.9712 17.1984L57.948 14.4559C58.4654 13.0033 58.7301 11.4731 58.7301 9.93153V9.0082C58.7301 8.13637 58.586 7.27049 58.3041 6.44534C57.9622 5.44551 57.424 4.52381 56.7208 3.73426L56.6825 3.69123C55.7926 2.69181 54.6718 1.92411 53.4171 1.45462L52.79 1.21987C52.0287 0.934935 51.2223 0.789001 50.4094 0.789001C49.5964 0.789001 48.79 0.934935 48.0288 1.21987L46.3233 1.85812C45.7696 2.0654 45.2325 2.31484 44.7171 2.60425C43.6017 3.23038 42.5986 4.03725 41.7482 4.99182L41.4704 5.30389C40.8738 5.97376 40.3429 6.6992 39.8853 7.47026L39.1318 8.73919C38.4563 9.87707 37.924 11.0939 37.5476 12.3621C37.1082 13.8423 36.8849 15.3781 36.8849 16.9219Z" fill="#107910" fill-opacity="0.32"/>
<path d="M51.9638 37.7734L52.2505 38.7391C52.6472 40.0758 53.5503 41.2059 54.7677 41.8895C55.1399 42.0986 55.5361 42.2623 55.9472 42.3779L57.6085 42.8441C59.3223 43.3251 61.1449 43.2481 62.8117 42.6244C63.5563 42.3457 64.2576 41.9622 64.8942 41.486L66.1013 40.5822C67.1133 39.8247 68.0463 38.9677 68.8867 38.0241L69.5096 37.3246C70.7082 35.9791 71.7744 34.5217 72.694 32.9728L73.7706 31.16L74.2645 30.0507C74.7493 28.9617 75 27.7831 75 26.5917V26.3646C75 24.9853 74.6281 23.6314 73.9238 22.4449L73.8666 22.3485C73.0087 20.9036 71.6821 19.7945 70.1065 19.2048C69.2772 18.8944 68.399 18.7355 67.5135 18.7355H66.8408C64.9353 18.7355 63.0624 19.2252 61.4016 20.1575L60.9342 20.4199C59.6647 21.1327 58.5227 22.0511 57.5548 23.1377L55.3283 25.6379L54.9655 26.0451C52.823 28.4508 51.6396 31.5574 51.6396 34.776V35.544C51.6396 36.2986 51.7488 37.0495 51.9638 37.7734Z" fill="#107910" fill-opacity="0.32"/>
<path d="M63.9848 45.6416L63.2671 45.843C62.0805 46.1759 60.9548 46.6966 59.9331 47.3851L57.5008 49.0236C56.0661 49.9902 54.8343 51.2267 53.8741 52.6641L53.2507 53.5976C52.2002 55.1702 51.6396 57.0178 51.6396 58.908C51.6396 60.6252 52.1027 62.3111 52.9797 63.7884L53.5708 64.7841C53.9219 65.3752 54.3289 65.9316 54.7866 66.4451L55.5169 67.2654C56.2004 68.0329 57.0611 68.6223 58.0245 68.9829C59.4569 69.519 61.0354 69.519 62.4678 68.9829L62.9146 68.8157C63.5912 68.5624 64.2281 68.2143 64.8061 67.7815L66.1013 66.812C67.1133 66.0545 68.0463 65.1975 68.8867 64.254L70.2016 62.7775C70.94 61.9487 71.5966 61.0512 72.1632 60.0971L72.7949 59.0329C73.4401 57.9465 73.884 56.753 74.1053 55.5094L74.3943 53.8874C74.7768 51.7402 74.153 49.5363 72.7012 47.906C71.7939 46.8872 70.6127 46.1497 69.2981 45.7805L68.8024 45.6416C67.227 45.1994 65.5602 45.1994 63.9848 45.6416Z" fill="#107910" fill-opacity="0.32"/>
<path d="M17.3077 24.598L19.0434 25.7675C20.2538 26.5829 21.6809 27.0185 23.1414 27.0185C24.8703 27.0185 26.5434 26.4082 27.8646 25.2956L29.0409 24.3048C30.1612 23.3616 31.0908 22.214 31.7806 20.9234L32.9468 18.7408C33.9276 16.9051 34.6543 14.9449 35.1065 12.914C35.4707 11.2779 35.6545 9.60691 35.6545 7.93092V7.69149V6.10976C35.6545 5.33222 35.491 4.56333 35.1745 3.8528C34.688 2.75983 33.8607 1.85273 32.8162 1.26632L32.4294 1.04906C32.121 0.875907 31.7997 0.726664 31.4681 0.602642L31.338 0.553883C29.3648 -0.184628 27.1903 -0.184628 25.217 0.553883C24.7991 0.710344 24.3935 0.898674 24.0044 1.11719L23.7431 1.26392C22.6752 1.86343 21.7146 2.63598 20.9006 3.54995L18.4416 6.31096L17.0836 7.83586C16.3523 8.65696 15.7225 9.56278 15.2077 10.5338C14.6004 11.6795 14.1588 12.9052 13.8961 14.1745L13.7549 14.8569C13.6012 15.6 13.5237 16.3569 13.5237 17.1158V17.4921C13.5237 18.3167 13.6429 19.1371 13.8776 19.9277C14.4436 21.8344 15.6562 23.4854 17.3077 24.598Z" fill="#107910" fill-opacity="0.32"/>
<path d="M0 44.5193V47.9937C0 49.1304 0.19058 50.259 0.56385 51.3332C1.0033 52.5977 1.68801 53.7631 2.57888 54.7634L4.65848 57.0986C6.45428 59.1149 8.61907 60.7708 11.0367 61.9773L12.1402 62.528C16.1932 64.5505 19.3375 68.0181 20.9506 72.2446C21.7309 74.2888 22.877 76.1744 24.3332 77.8095L27.6094 81.4879C29.5989 83.7218 32.4506 85 35.4453 85C38.6806 85 41.735 83.509 43.7211 80.9601L46.0897 77.9207C48.1124 75.3253 49.3985 72.2349 49.8135 68.973L50.409 64.2923V53.8681C50.409 51.6231 50.1288 49.3866 49.5751 47.2103L49.3167 46.1943C48.4186 42.6656 46.6851 39.4035 44.2616 36.6822L41.8027 33.9213L41.5786 33.6697C40.1053 32.0155 38.2981 30.6905 36.2757 29.7824C34.2458 28.8706 32.045 28.3993 29.8191 28.3993H27.0488H17.9397C16.6383 28.3993 15.3396 28.5197 14.0605 28.759L12.4879 29.0532C9.94372 29.5294 7.56652 30.6554 5.58811 32.3216C4.33029 33.3807 3.25593 34.6397 2.40822 36.0474L2.30789 36.214C0.797795 38.7222 0 41.5932 0 44.5193Z" fill="#107910" fill-opacity="0.32"/>
</svg>
