<svg width="53" height="59" viewBox="0 0 53 59" fill="none" xmlns="http://www.w3.org/2000/svg">
<path d="M25.6025 11.7458V12.781C25.6025 13.5649 25.7158 14.3446 25.9391 15.0961L26.2139 16.0222C26.3734 16.5592 26.6492 17.0547 27.0222 17.4733C27.7476 18.2881 28.7877 18.754 29.8798 18.754H30.7231H31.2378C32.5789 18.754 33.8972 18.4095 35.0661 17.7532C36.1381 17.1514 37.0526 16.3052 37.7348 15.2837L38.254 14.5063C38.7884 13.7063 39.2219 12.8436 39.5447 11.9377L40.2227 10.0341C40.5819 9.02586 40.7656 7.9637 40.7656 6.89366V6.25276C40.7656 5.6476 40.6656 5.04659 40.47 4.47383C40.2327 3.77984 39.859 3.14007 39.3709 2.59202L39.3443 2.56216C38.7267 1.86844 37.9487 1.33557 37.0778 1.00968L36.6425 0.846741C36.1141 0.648963 35.5544 0.547668 34.9901 0.547668C34.4258 0.547668 33.866 0.648963 33.3377 0.846741L32.1539 1.28976C31.7696 1.43364 31.3967 1.60678 31.039 1.80767C30.2648 2.24227 29.5685 2.80234 28.9782 3.46492L28.7854 3.68153C28.3713 4.1465 28.0028 4.65004 27.6851 5.18525L27.1621 6.06603C26.6932 6.85585 26.3238 7.70049 26.0625 8.58074C25.7575 9.6082 25.6025 10.6742 25.6025 11.7458Z" fill="#107910"/>
<path d="M36.069 26.2192L36.268 26.8895C36.5434 27.8173 37.1702 28.6017 38.0153 29.0762C38.2736 29.2214 38.5486 29.3351 38.834 29.4153L39.9872 29.7389C41.1767 30.0727 42.4418 30.0193 43.5988 29.5864C44.1156 29.3929 44.6023 29.1267 45.0442 28.7962L45.8821 28.1688C46.5845 27.643 47.2322 27.0481 47.8155 26.3932L48.2479 25.9077C49.0798 24.9737 49.8199 23.9622 50.4582 22.887L51.2055 21.6287L51.5484 20.8588C51.8849 20.1029 52.0589 19.2848 52.0589 18.4578V18.3002C52.0589 17.3427 51.8007 16.403 51.3118 15.5794L51.2722 15.5125C50.6767 14.5096 49.7558 13.7397 48.6622 13.3304C48.0866 13.115 47.477 13.0046 46.8623 13.0046H46.3954C45.0728 13.0046 43.7728 13.3446 42.62 13.9917L42.2955 14.1738C41.4144 14.6686 40.6217 15.3061 39.9498 16.0603L38.4044 17.7958L38.1526 18.0784C36.6654 19.7482 35.844 21.9046 35.844 24.1386V24.6717C35.844 25.1955 35.9198 25.7168 36.069 26.2192Z" fill="#107910"/>
<path d="M44.4131 31.6806L43.9148 31.8204C43.0912 32.0515 42.3098 32.4129 41.6007 32.8908L39.9123 34.0281C38.9165 34.699 38.0615 35.5573 37.395 36.555L36.9623 37.203C36.2331 38.2946 35.844 39.577 35.844 40.889C35.844 42.081 36.1654 43.2512 36.7742 44.2766L37.1845 44.9678C37.4282 45.3781 37.7107 45.7642 38.0284 46.1207L38.5353 46.6901C39.0098 47.2228 39.6072 47.6319 40.2759 47.8822C41.2701 48.2543 42.3658 48.2543 43.3601 47.8822L43.6702 47.7662C44.1398 47.5903 44.5819 47.3487 44.9831 47.0483L45.8821 46.3754C46.5845 45.8496 47.2322 45.2547 47.8155 44.5998L48.7282 43.575C49.2408 42.9997 49.6965 42.3767 50.0898 41.7144L50.5283 40.9758C50.9761 40.2216 51.2843 39.3933 51.4378 38.53L51.6384 37.4042C51.9039 35.9138 51.471 34.384 50.4632 33.2524C49.8334 32.5452 49.0136 32.0333 48.101 31.777L47.757 31.6806C46.6635 31.3736 45.5065 31.3736 44.4131 31.6806Z" fill="#107910"/>
<path d="M12.0135 17.0739L13.2183 17.8856C14.0585 18.4516 15.049 18.754 16.0628 18.754C17.2628 18.754 18.4242 18.3304 19.3413 17.5581L20.1577 16.8704C20.9353 16.2157 21.5806 15.4191 22.0594 14.5233L22.8689 13.0083C23.5497 11.7341 24.0541 10.3735 24.368 8.96385C24.6208 7.8282 24.7483 6.66833 24.7483 5.50499V5.3388V4.24089C24.7483 3.70119 24.6348 3.16749 24.4152 2.6743C24.0775 1.91565 23.5033 1.28601 22.7782 0.878973L22.5098 0.72817C22.2957 0.607982 22.0727 0.50439 21.8425 0.418305L21.7522 0.38446C20.3826 -0.128153 18.8732 -0.128153 17.5035 0.38446C17.2134 0.493063 16.9319 0.623786 16.6618 0.77546L16.4805 0.87731C15.7392 1.29344 15.0724 1.82968 14.5074 2.46409L12.8006 4.38055L11.8579 5.43901C11.3503 6.00895 10.9132 6.63769 10.5559 7.31172C10.1343 8.10693 9.82781 8.95773 9.64548 9.83879L9.54748 10.3124C9.44075 10.8283 9.38696 11.3536 9.38696 11.8804V12.1416C9.38696 12.714 9.4697 13.2834 9.63262 13.8322C10.0255 15.1557 10.8672 16.3017 12.0135 17.0739Z" fill="#107910"/>
<path d="M0 30.9016V33.3132C0 34.1022 0.132285 34.8856 0.391379 35.6312C0.696406 36.5089 1.17168 37.3179 1.79004 38.0122L3.23353 39.6331C4.48003 41.0326 5.98265 42.182 7.66078 43.0195L8.42676 43.4017C11.24 44.8056 13.4225 47.2125 14.5422 50.1462C15.0838 51.5651 15.8794 52.8739 16.8901 54.0089L19.1642 56.5622C20.5452 58.1128 22.5246 59 24.6032 59C26.8489 59 28.969 57.965 30.3476 56.1958L31.9917 54.0861C33.3957 52.2846 34.2883 50.1395 34.5764 47.8754L34.9898 44.6264V37.3908C34.9898 35.8324 34.7953 34.2801 34.411 32.7694L34.2316 32.0642C33.6082 29.6149 32.405 27.3506 30.7228 25.4618L29.016 23.5454L28.8604 23.3707C27.8378 22.2225 26.5834 21.3028 25.1796 20.6725C23.7706 20.0396 22.243 19.7124 20.6979 19.7124H18.7751H12.4523C11.5489 19.7124 10.6475 19.796 9.75963 19.9621L8.66809 20.1663C6.90211 20.4968 5.25205 21.2785 3.87881 22.435C3.00573 23.1701 2.26 24.044 1.67159 25.0211L1.60194 25.1368C0.553764 26.8777 0 28.8705 0 30.9016Z" fill="#107910"/>
<g filter="url(#filter0_d_403_10)">
<path d="M14 33L21 24L28 33" stroke="url(#paint0_linear_403_10)" stroke-linecap="round" stroke-linejoin="round"/>
</g>
<path d="M14.304 44V36.776H12.084V36.2H17.448V36.776H15.216V44H14.304ZM20.5312 44.12C19.6993 44.12 19.0633 43.848 18.6233 43.304C18.1913 42.76 17.9753 41.992 17.9753 41C17.9753 40.008 18.1913 39.24 18.6233 38.696C19.0633 38.152 19.6993 37.88 20.5312 37.88C21.3633 37.88 21.9953 38.152 22.4273 38.696C22.8673 39.24 23.0873 40.008 23.0873 41C23.0873 41.984 22.8633 42.752 22.4153 43.304C21.9753 43.848 21.3473 44.12 20.5312 44.12ZM20.5312 43.592C21.0913 43.592 21.5033 43.38 21.7673 42.956C22.0313 42.524 22.1633 41.872 22.1633 41C22.1633 40.136 22.0313 39.488 21.7673 39.056C21.5033 38.624 21.0913 38.408 20.5312 38.408C19.9713 38.408 19.5593 38.624 19.2952 39.056C19.0313 39.48 18.8993 40.128 18.8993 41C18.8993 41.872 19.0313 42.524 19.2952 42.956C19.5593 43.38 19.9713 43.592 20.5312 43.592ZM24.443 38H25.163L25.271 38.72C25.383 38.544 25.575 38.36 25.847 38.168C26.119 37.976 26.495 37.88 26.975 37.88C27.679 37.88 28.239 38.14 28.655 38.66C29.079 39.18 29.291 39.904 29.291 40.832C29.291 41.84 29.079 42.64 28.655 43.232C28.231 43.824 27.631 44.12 26.855 44.12C26.527 44.12 26.247 44.08 26.015 44C25.791 43.912 25.619 43.82 25.499 43.724C25.379 43.62 25.319 43.56 25.319 43.544H25.307V47L24.443 47.024V38ZM26.567 43.544C27.191 43.544 27.647 43.324 27.935 42.884C28.223 42.436 28.367 41.76 28.367 40.856C28.367 40.016 28.223 39.408 27.935 39.032C27.647 38.656 27.231 38.468 26.687 38.468C26.399 38.468 26.151 38.528 25.943 38.648C25.735 38.768 25.575 38.9 25.463 39.044C25.359 39.18 25.307 39.26 25.307 39.284V43.016C25.395 43.128 25.539 43.244 25.739 43.364C25.947 43.484 26.223 43.544 26.567 43.544Z" fill="white"/>
<defs>
<filter id="filter0_d_403_10" x="9.5" y="23.5" width="23" height="18" filterUnits="userSpaceOnUse" color-interpolation-filters="sRGB">
<feFlood flood-opacity="0" result="BackgroundImageFix"/>
<feColorMatrix in="SourceAlpha" type="matrix" values="0 0 0 0 0 0 0 0 0 0 0 0 0 0 0 0 0 0 127 0" result="hardAlpha"/>
<feOffset dy="4"/>
<feGaussianBlur stdDeviation="2"/>
<feComposite in2="hardAlpha" operator="out"/>
<feColorMatrix type="matrix" values="0 0 0 0 0 0 0 0 0 0 0 0 0 0 0 0 0 0 0.25 0"/>
<feBlend mode="normal" in2="BackgroundImageFix" result="effect1_dropShadow_403_10"/>
<feBlend mode="normal" in="SourceGraphic" in2="effect1_dropShadow_403_10" result="shape"/>
</filter>
<linearGradient id="paint0_linear_403_10" x1="21" y1="23" x2="21" y2="33" gradientUnits="userSpaceOnUse">
<stop stop-color="white"/>
<stop offset="1" stop-color="white"/>
</linearGradient>
</defs>
</svg>
