<svg width="54" height="61" viewBox="0 0 54 61" fill="none" xmlns="http://www.w3.org/2000/svg">
<path d="M26.3296 12.1027V13.1694C26.3296 13.977 26.4461 14.7805 26.6757 15.5548L26.9583 16.509C27.1223 17.0624 27.406 17.5729 27.7896 18.0043C28.5356 18.8437 29.6052 19.3239 30.7283 19.3239H31.5956H32.1249C33.5041 19.3239 34.8598 18.9688 36.0619 18.2926C37.1644 17.6725 38.1048 16.8006 38.8064 15.7481L39.3404 14.9471C39.8899 14.1228 40.3357 13.2338 40.6677 12.3004L41.365 10.339C41.7343 9.30011 41.9233 8.20568 41.9233 7.10312V6.44275C41.9233 5.8192 41.8204 5.19993 41.6192 4.60977C41.3752 3.89469 40.9909 3.23547 40.489 2.67078L40.4616 2.64001C39.8264 1.92521 39.0263 1.37615 38.1307 1.04036L37.6831 0.872468C37.1397 0.668681 36.564 0.564308 35.9837 0.564308C35.4034 0.564308 34.8278 0.668681 34.2844 0.872468L33.067 1.32895C32.6717 1.4772 32.2883 1.6556 31.9204 1.86259C31.1242 2.3104 30.4082 2.88748 29.8011 3.5702L29.6028 3.79339C29.1769 4.27249 28.798 4.79133 28.4713 5.3428L27.9334 6.25035C27.4513 7.06417 27.0713 7.93447 26.8026 8.84146C26.489 9.90015 26.3296 10.9985 26.3296 12.1027Z" fill="#107910"/>
<path d="M37.0932 27.0158L37.2979 27.7065C37.5811 28.6625 38.2257 29.4708 39.0948 29.9597C39.3604 30.1093 39.6433 30.2264 39.9367 30.309L41.1226 30.6424C42.3459 30.9865 43.647 30.9314 44.8368 30.4853C45.3683 30.286 45.8689 30.0117 46.3233 29.6712L47.185 29.0247C47.9074 28.483 48.5734 27.87 49.1733 27.1952L49.6179 26.6948C50.4735 25.7325 51.2346 24.6902 51.8911 23.5824L52.6595 22.2859L53.0121 21.4925C53.3582 20.7137 53.5372 19.8707 53.5372 19.0186V18.8562C53.5372 17.8697 53.2717 16.9014 52.7689 16.0528L52.7281 15.9839C52.1157 14.9505 51.1687 14.1572 50.044 13.7354C49.452 13.5135 48.8252 13.3998 48.193 13.3998H47.7129C46.3527 13.3998 45.0157 13.75 43.8302 14.4168L43.4966 14.6045C42.5904 15.1143 41.7752 15.7712 41.0843 16.5483L39.4949 18.3365L39.236 18.6276C37.7066 20.3482 36.8618 22.5701 36.8618 24.8721V25.4214C36.8618 25.9611 36.9398 26.4981 37.0932 27.0158Z" fill="#107910"/>
<path d="M45.6742 32.6432L45.1618 32.7873C44.3148 33.0254 43.5113 33.3978 42.782 33.8902L41.0457 35.062C40.0216 35.7534 39.1423 36.6377 38.4569 37.6657L38.0119 38.3334C37.262 39.4581 36.8618 40.7796 36.8618 42.1314C36.8618 43.3596 37.1924 44.5654 37.8184 45.6219L38.2404 46.3341C38.491 46.7569 38.7815 47.1548 39.1082 47.5221L39.6296 48.1087C40.1175 48.6576 40.7319 49.0792 41.4195 49.3371C42.442 49.7205 43.5688 49.7205 44.5913 49.3371L44.9102 49.2175C45.3932 49.0363 45.8479 48.7874 46.2605 48.4779L47.185 47.7845C47.9074 47.2427 48.5734 46.6298 49.1733 45.955L50.1119 44.899C50.639 44.3062 51.1077 43.6643 51.5122 42.9819L51.9631 42.2208C52.4237 41.4438 52.7405 40.5902 52.8985 39.7008L53.1048 38.5407C53.3778 37.005 52.9326 35.4287 51.8962 34.2628C51.2485 33.5341 50.4054 33.0066 49.4669 32.7426L49.1131 32.6432C47.9886 32.3269 46.7988 32.3269 45.6742 32.6432Z" fill="#107910"/>
<path d="M12.3547 17.5927L13.5937 18.4291C14.4577 19.0123 15.4764 19.3239 16.519 19.3239C17.7531 19.3239 18.9474 18.8874 19.8905 18.0916L20.7302 17.383C21.5299 16.7084 22.1935 15.8876 22.6858 14.9646L23.5184 13.4036C24.2185 12.0907 24.7372 10.6887 25.06 9.23621C25.32 8.06606 25.4512 6.87094 25.4512 5.67226V5.50102V4.36975C25.4512 3.81365 25.3344 3.26373 25.1086 2.75556C24.7613 1.97385 24.1707 1.32509 23.4251 0.905681L23.149 0.750295C22.9289 0.626456 22.6995 0.519716 22.4628 0.431015L22.37 0.396142C20.9614 -0.132047 19.4092 -0.132047 18.0006 0.396142C17.7023 0.508044 17.4127 0.642739 17.135 0.799023L16.9485 0.903967C16.1862 1.33274 15.5005 1.88527 14.9194 2.53896L13.1641 4.51365L12.1947 5.60427C11.6727 6.19153 11.2231 6.83938 10.8557 7.53389C10.4221 8.35326 10.1069 9.22991 9.91942 10.1377L9.81864 10.6257C9.70888 11.1573 9.65356 11.6986 9.65356 12.2413V12.5105C9.65356 13.1003 9.73865 13.687 9.9062 14.2524C10.3102 15.6161 11.1758 16.797 12.3547 17.5927Z" fill="#107910"/>
<path d="M0 31.8406V34.3255C0 35.1385 0.136041 35.9457 0.402493 36.714C0.716182 37.6183 1.20495 38.4519 1.84088 39.1673L3.32536 40.8375C4.60725 42.2795 6.15254 43.4638 7.87833 44.3267L8.66606 44.7206C11.5592 46.1671 13.8037 48.6471 14.9552 51.67C15.5121 53.132 16.3303 54.4806 17.3697 55.65L19.7084 58.2809C21.1286 59.8786 23.1642 60.7927 25.3019 60.7927C27.6113 60.7927 29.7916 59.7264 31.2094 57.9034L32.9002 55.7296C34.344 53.8733 35.2621 51.663 35.5583 49.3301L35.9834 45.9824V38.527C35.9834 36.9213 35.7834 35.3217 35.3882 33.7652L35.2037 33.0386C34.5626 30.5149 33.3252 28.1817 31.5952 26.2355L29.84 24.2609L29.68 24.0809C28.6283 22.8978 27.3383 21.9502 25.8946 21.3007C24.4457 20.6485 22.8747 20.3114 21.2857 20.3114H19.3082H12.8059C11.8769 20.3114 10.9499 20.3976 10.0368 20.5688L8.91424 20.7791C7.09812 21.1197 5.4012 21.9251 3.98896 23.1167C3.09108 23.8742 2.32417 24.7747 1.71906 25.7815L1.64744 25.9006C0.569489 27.6945 0 29.7478 0 31.8406Z" fill="#107910"/>
</svg>
