<svg width="28" height="21" viewBox="0 0 28 21" fill="none" xmlns="http://www.w3.org/2000/svg">
<path d="M27.127 2.33789C25.9642 2.93164 24.8757 3.53776 23.8613 4.15625C22.8717 4.75 22.0182 5.34375 21.3008 5.9375C20.4596 6.65495 19.7669 7.42188 19.2227 8.23828C18.6784 9.05469 18.2083 10.1061 17.8125 11.3926H19.4082C20.9668 11.3926 22.0801 11.776 22.748 12.543C23.4408 13.3099 23.7871 14.1634 23.7871 15.1035C23.7871 16.291 23.3294 17.429 22.4141 18.5176C21.4987 19.5814 20.2493 20.1133 18.666 20.1133C16.9837 20.1133 15.7344 19.6432 14.918 18.7031C14.1263 17.763 13.7305 16.526 13.7305 14.9922C13.7305 12.9883 14.1634 11.1699 15.0293 9.53711C15.8952 7.9043 16.9837 6.44466 18.2949 5.1582C19.5814 3.92122 20.9173 2.89453 22.3027 2.07812C23.7129 1.26172 24.9499 0.56901 26.0137 0L27.127 2.33789ZM13.3965 2.33789C12.2337 2.93164 11.1452 3.53776 10.1309 4.15625C9.14128 4.75 8.28776 5.34375 7.57031 5.9375C6.72917 6.65495 6.03646 7.42188 5.49219 8.23828C4.94792 9.05469 4.47786 10.1061 4.08203 11.3926H5.67773C7.23633 11.3926 8.34961 11.776 9.01758 12.543C9.71029 13.3099 10.0566 14.1634 10.0566 15.1035C10.0566 16.291 9.59896 17.429 8.68359 18.5176C7.76823 19.5814 6.51888 20.1133 4.93555 20.1133C3.25326 20.1133 2.00391 19.6432 1.1875 18.7031C0.395833 17.763 0 16.526 0 14.9922C0 12.9883 0.432943 11.1699 1.29883 9.53711C2.16471 7.9043 3.25326 6.44466 4.56445 5.1582C5.85091 3.92122 7.18685 2.89453 8.57227 2.07812C9.98242 1.26172 11.2194 0.56901 12.2832 0L13.3965 2.33789Z" fill="#107910"/>
</svg>
