<svg width="53" height="59" viewBox="0 0 53 59" fill="none" xmlns="http://www.w3.org/2000/svg">
<path d="M25.6025 11.7458V12.781C25.6025 13.5649 25.7158 14.3446 25.939 15.0961L26.2138 16.0222C26.3733 16.5592 26.6491 17.0547 27.0222 17.4733C27.7476 18.2881 28.7877 18.754 29.8798 18.754H30.7231H31.2378C32.5789 18.754 33.8971 18.4095 35.066 17.7532C36.1381 17.1514 37.0526 16.3052 37.7347 15.2837L38.254 14.5063C38.7883 13.7063 39.2219 12.8436 39.5447 11.9377L40.2227 10.0341C40.5818 9.02586 40.7656 7.9637 40.7656 6.89366V6.25276C40.7656 5.6476 40.6656 5.04659 40.4699 4.47383C40.2326 3.77984 39.859 3.14007 39.3709 2.59202L39.3443 2.56216C38.7266 1.86844 37.9486 1.33557 37.0778 1.00968L36.6424 0.846741C36.1141 0.648963 35.5543 0.547668 34.99 0.547668C34.4257 0.547668 33.866 0.648963 33.3376 0.846741L32.1538 1.28976C31.7695 1.43364 31.3967 1.60678 31.0389 1.80767C30.2647 2.24227 29.5685 2.80234 28.9782 3.46492L28.7853 3.68153C28.3712 4.1465 28.0028 4.65004 27.6851 5.18525L27.1621 6.06603C26.6932 6.85585 26.3237 7.70049 26.0624 8.58074C25.7575 9.6082 25.6025 10.6742 25.6025 11.7458Z" fill="#107910" fill-opacity="0.32"/>
<path d="M36.069 26.2191L36.268 26.8895C36.5434 27.8173 37.1702 28.6017 38.0152 29.0762C38.2736 29.2214 38.5486 29.335 38.8339 29.4152L39.9871 29.7388C41.1766 30.0727 42.4417 30.0192 43.5987 29.5863C44.1156 29.3929 44.6023 29.1267 45.0442 28.7962L45.8821 28.1688C46.5845 27.643 47.2321 27.0481 47.8155 26.3932L48.2478 25.9076C49.0798 24.9737 49.8199 23.9621 50.4582 22.887L51.2054 21.6287L51.5483 20.8587C51.8848 20.1028 52.0588 19.2848 52.0588 18.4578V18.3001C52.0588 17.3427 51.8007 16.403 51.3118 15.5794L51.2721 15.5125C50.6767 14.5096 49.7558 13.7397 48.6621 13.3304C48.0865 13.115 47.477 13.0046 46.8623 13.0046H46.3954C45.0727 13.0046 43.7727 13.3445 42.6199 13.9917L42.2955 14.1738C41.4143 14.6685 40.6216 15.3061 39.9498 16.0603L38.4043 17.7957L38.1525 18.0783C36.6654 19.7482 35.8439 21.9046 35.8439 24.1386V24.6717C35.8439 25.1955 35.9197 25.7167 36.069 26.2191Z" fill="#107910" fill-opacity="0.32"/>
<path d="M44.413 31.6806L43.9148 31.8204C43.0912 32.0515 42.3098 32.413 41.6006 32.8908L39.9123 34.0281C38.9164 34.6991 38.0615 35.5574 37.395 36.5551L36.9622 37.203C36.233 38.2946 35.8439 39.5771 35.8439 40.8891C35.8439 42.081 36.1654 43.2512 36.7741 44.2766L37.1845 44.9678C37.4281 45.3781 37.7107 45.7643 38.0283 46.1207L38.5353 46.6901C39.0097 47.2228 39.6071 47.6319 40.2758 47.8823C41.2701 48.2544 42.3657 48.2544 43.36 47.8823L43.6701 47.7662C44.1398 47.5904 44.5819 47.3488 44.9831 47.0483L45.8821 46.3754C46.5845 45.8496 47.2321 45.2547 47.8155 44.5998L48.7282 43.575C49.2407 42.9997 49.6965 42.3767 50.0897 41.7145L50.5282 40.9758C50.9761 40.2217 51.2842 39.3933 51.4378 38.5301L51.6384 37.4042C51.9039 35.9138 51.4709 34.384 50.4632 33.2524C49.8334 32.5452 49.0135 32.0333 48.101 31.7771L47.7569 31.6806C46.6635 31.3737 45.5065 31.3737 44.413 31.6806Z" fill="#107910" fill-opacity="0.32"/>
<path d="M12.0136 17.0739L13.2183 17.8856C14.0585 18.4516 15.0491 18.754 16.0628 18.754C17.2629 18.754 18.4242 18.3304 19.3413 17.5581L20.1578 16.8704C20.9354 16.2157 21.5806 15.4191 22.0594 14.5233L22.869 13.0083C23.5497 11.7341 24.0541 10.3735 24.368 8.96385C24.6208 7.8282 24.7484 6.66833 24.7484 5.50499V5.3388V4.24089C24.7484 3.70119 24.6349 3.16749 24.4152 2.6743C24.0775 1.91565 23.5033 1.28601 22.7783 0.878973L22.5098 0.72817C22.2957 0.607982 22.0727 0.50439 21.8426 0.418305L21.7523 0.38446C20.3826 -0.128153 18.8732 -0.128153 17.5036 0.38446C17.2135 0.493063 16.9319 0.623786 16.6619 0.77546L16.4805 0.87731C15.7392 1.29344 15.0725 1.82968 14.5075 2.46409L12.8006 4.38055L11.858 5.43901C11.3504 6.00895 10.9132 6.63769 10.5559 7.31172C10.1343 8.10693 9.82785 8.95773 9.64553 9.83879L9.54753 10.3124C9.4408 10.8283 9.38701 11.3536 9.38701 11.8804V12.1416C9.38701 12.714 9.46975 13.2834 9.63267 13.8322C10.0256 15.1557 10.8672 16.3017 12.0136 17.0739Z" fill="#107910" fill-opacity="0.32"/>
<path d="M0 30.9016V33.3133C0 34.1022 0.132285 34.8857 0.391379 35.6313C0.696406 36.509 1.17168 37.3179 1.79004 38.0122L3.23353 39.6332C4.48003 41.0327 5.98265 42.1821 7.66078 43.0196L8.42676 43.4018C11.24 44.8056 13.4225 47.2126 14.5422 50.1462C15.0838 51.5652 15.8794 52.874 16.8901 54.0089L19.1642 56.5622C20.5452 58.1128 22.5246 59 24.6032 59C26.8489 59 28.969 57.9651 30.3476 56.1958L31.9917 54.0862C33.3957 52.2846 34.2883 50.1395 34.5764 47.8754L34.9898 44.6264V37.3908C34.9898 35.8325 34.7953 34.2801 34.411 32.7695L34.2316 32.0643C33.6082 29.615 32.405 27.3506 30.7228 25.4618L29.016 23.5454L28.8604 23.3707C27.8378 22.2225 26.5834 21.3029 25.1796 20.6725C23.7706 20.0396 22.243 19.7124 20.6979 19.7124H18.7751H12.4523C11.5489 19.7124 10.6475 19.796 9.75963 19.9622L8.66809 20.1663C6.90211 20.4969 5.25205 21.2785 3.87881 22.435C3.00573 23.1701 2.26 24.0441 1.67159 25.0212L1.60194 25.1368C0.553764 26.8777 0 28.8706 0 30.9016Z" fill="#107910" fill-opacity="0.32"/>
</svg>
