<svg width="342" height="54" viewBox="0 0 342 54" fill="none" xmlns="http://www.w3.org/2000/svg">
<path d="M13.9868 7.55112C19.7764 7.55112 24.2602 8.74824 27.4379 11.1424C30.6593 13.5367 32.2699 17.1279 32.2699 21.9164C32.2699 26.9224 30.6593 30.688 27.4379 33.2127C24.2165 35.694 19.9288 36.9347 14.5745 36.9347H9.28542V52.6712H0.66626V7.55112H13.9868ZM13.9215 30.4703C17.0123 30.4703 19.3411 29.8392 20.9082 28.5767C22.4754 27.2708 23.2589 25.0507 23.2589 21.9164C23.2589 16.5621 20.1465 13.8849 13.9215 13.8849H9.28542V30.4703H13.9215Z" fill="#3D3D3D"/>
<path d="M65.3462 34.584C65.3462 35.0193 65.2809 36.1512 65.1503 37.9795H43.4718C43.733 41.3314 44.6037 43.7256 46.0837 45.1621C47.5637 46.5986 49.5226 47.3169 51.9604 47.3169C53.484 47.3169 54.9206 47.0775 56.27 46.5986C57.6194 46.0763 59.0559 45.2927 60.5796 44.248L64.0403 49.0146C60.2096 52.1054 55.9435 53.6507 51.2421 53.6507C45.9749 53.6507 41.9047 52.0401 39.0316 48.8187C36.202 45.5974 34.7874 41.2008 34.7874 35.6288C34.7874 32.1028 35.3969 28.9467 36.6157 26.1608C37.8345 23.3312 39.5975 21.1329 41.9047 19.5658C44.2119 17.9552 46.9544 17.1498 50.1321 17.1498C54.964 17.1498 58.7078 18.6951 61.3631 21.7859C64.0184 24.833 65.3462 29.0991 65.3462 34.584ZM57.0535 32.1681C57.0535 26.1173 54.8116 23.0918 50.328 23.0918C48.2819 23.0918 46.6713 23.8535 45.496 25.3772C44.3641 26.8572 43.6895 29.2515 43.4718 32.5598H57.0535V32.1681Z" fill="#3D3D3D"/>
<path d="M92.6284 51.0388C91.4095 51.9095 90.0383 52.5625 88.5147 52.9977C87.0347 53.4329 85.511 53.6507 83.9439 53.6507C80.5485 53.6072 77.9584 52.6494 76.1736 50.7776C74.4324 48.8622 73.5617 46.0544 73.5617 42.3543V24.1366H68.1421V18.1293H73.5617V10.4895L81.9197 9.51007V18.1293H89.9512L89.1023 24.1366H81.9197V42.1584C81.9197 43.8562 82.2027 45.075 82.7685 45.8151C83.3781 46.5552 84.3138 46.9251 85.5763 46.9251C86.8388 46.9251 88.21 46.5115 89.69 45.6845L92.6284 51.0388Z" fill="#3D3D3D"/>
<path d="M156.685 52.6712H148.262L147.086 33.8004C146.694 27.053 146.498 21.6987 146.498 17.7374V15.3867L138.271 47.7739H130.109L121.359 15.3214C121.446 18.1945 121.489 20.3711 121.489 21.8511C121.489 25.8124 121.359 29.8826 121.098 34.0616L119.988 52.6712H111.63L115.221 7.55112H126.322L134.353 39.1548L141.928 7.55112H153.159L156.685 52.6712Z" fill="url(#paint0_linear_1_205)"/>
<path d="M178.835 17.1498C183.928 17.1498 187.889 18.7822 190.719 22.0471C193.592 25.2684 195.029 29.7086 195.029 35.3676C195.029 38.9808 194.376 42.1803 193.07 44.9662C191.764 47.7087 189.893 49.8416 187.454 51.3653C185.016 52.889 182.122 53.6507 178.77 53.6507C173.676 53.6507 169.693 52.0401 166.82 48.8187C163.947 45.5539 162.511 41.0702 162.511 35.3676C162.511 31.7544 163.164 28.5767 164.47 25.8343C165.776 23.0918 167.647 20.9589 170.085 19.4352C172.566 17.9115 175.482 17.1498 178.835 17.1498ZM178.835 23.4836C173.83 23.4836 171.326 27.4449 171.326 35.3676C171.326 39.4595 171.936 42.4849 173.154 44.4438C174.417 46.3593 176.288 47.3169 178.77 47.3169C181.251 47.3169 183.102 46.3374 184.32 44.3785C185.583 42.4196 186.213 39.416 186.213 35.3676C186.213 31.3192 185.583 28.3374 184.32 26.422C183.102 24.463 181.273 23.4836 178.835 23.4836Z" fill="url(#paint1_linear_1_205)"/>
<path d="M221.278 17.1498C224.367 17.1498 226.763 18.0858 228.461 19.9576C230.201 21.7859 231.072 24.3543 231.072 27.6626V52.6712H222.714V28.9685C222.714 26.9225 222.343 25.486 221.604 24.6589C220.907 23.8319 219.862 23.4183 218.47 23.4183C217.034 23.4183 215.728 23.8754 214.552 24.7895C213.42 25.6602 212.31 26.9443 211.222 28.642V52.6712H202.864V18.1293H210.112L210.765 22.6347C213.593 18.9781 217.099 17.1498 221.278 17.1498Z" fill="url(#paint2_linear_1_205)"/>
<path d="M249.161 18.1293V52.6712H240.803V18.1293H249.161ZM244.917 0.629738C246.484 0.629738 247.747 1.13036 248.704 2.13156C249.706 3.08926 250.206 4.28635 250.206 5.72288C250.206 7.15941 249.706 8.35652 248.704 9.3142C247.747 10.2719 246.484 10.7507 244.917 10.7507C243.395 10.7507 242.132 10.2719 241.13 9.3142C240.173 8.35652 239.693 7.15941 239.693 5.72288C239.693 4.28635 240.173 3.08926 241.13 2.13156C242.132 1.13036 243.395 0.629738 244.917 0.629738Z" fill="url(#paint3_linear_1_205)"/>
<path d="M279.018 51.0388C277.798 51.9095 276.427 52.5625 274.905 52.9977C273.423 53.4329 271.901 53.6507 270.334 53.6507C266.938 53.6072 264.347 52.6494 262.563 50.7776C260.821 48.8622 259.952 46.0544 259.952 42.3543V24.1366H254.532V18.1293H259.952V10.4895L268.31 9.51007V18.1293H276.341L275.492 24.1366H268.31V42.1584C268.31 43.8562 268.591 45.075 269.158 45.8151C269.767 46.5552 270.703 46.9251 271.966 46.9251C273.227 46.9251 274.598 46.5115 276.08 45.6845L279.018 51.0388Z" fill="url(#paint4_linear_1_205)"/>
<path d="M296.738 17.1498C301.831 17.1498 305.794 18.7822 308.622 22.0471C311.495 25.2684 312.932 29.7086 312.932 35.3676C312.932 38.9808 312.279 42.1803 310.973 44.9662C309.667 47.7087 307.796 49.8416 305.357 51.3653C302.921 52.889 300.026 53.6507 296.673 53.6507C291.58 53.6507 287.597 52.0401 284.724 48.8187C281.851 45.5539 280.414 41.0702 280.414 35.3676C280.414 31.7544 281.067 28.5767 282.373 25.8343C283.679 23.0918 285.552 20.9589 287.988 19.4352C290.47 17.9115 293.388 17.1498 296.738 17.1498ZM296.738 23.4836C291.733 23.4836 289.229 27.4449 289.229 35.3676C289.229 39.4595 289.839 42.4849 291.057 44.4438C292.321 46.3593 294.192 47.3169 296.673 47.3169C299.154 47.3169 301.005 46.3374 302.223 44.3785C303.486 42.4196 304.117 39.416 304.117 35.3676C304.117 31.3192 303.486 28.3374 302.223 26.422C301.005 24.463 299.177 23.4836 296.738 23.4836Z" fill="url(#paint5_linear_1_205)"/>
<path d="M337.81 17.2151C339.071 17.2151 340.226 17.3675 341.27 17.6722L339.834 25.7689C338.789 25.5078 337.765 25.3772 336.765 25.3772C334.718 25.3772 333.108 26.1173 331.933 27.5973C330.758 29.0338 329.821 31.2539 329.125 34.2575V52.6712H320.767V18.1292H328.015L328.799 24.9201C329.625 22.4388 330.823 20.5452 332.39 19.2393C333.957 17.8899 335.763 17.2151 337.81 17.2151Z" fill="url(#paint6_linear_1_205)"/>
<defs>
<linearGradient id="paint0_linear_1_205" x1="134.157" y1="7.55112" x2="134.157" y2="52.6712" gradientUnits="userSpaceOnUse">
<stop stop-color="#147714"/>
<stop offset="1" stop-color="#157E15"/>
</linearGradient>
<linearGradient id="paint1_linear_1_205" x1="178.77" y1="17.1498" x2="178.77" y2="53.6507" gradientUnits="userSpaceOnUse">
<stop stop-color="#147714"/>
<stop offset="1" stop-color="#157E15"/>
</linearGradient>
<linearGradient id="paint2_linear_1_205" x1="216.968" y1="17.1498" x2="216.968" y2="52.6712" gradientUnits="userSpaceOnUse">
<stop stop-color="#147714"/>
<stop offset="1" stop-color="#157E15"/>
</linearGradient>
<linearGradient id="paint3_linear_1_205" x1="244.95" y1="0.629738" x2="244.95" y2="52.6712" gradientUnits="userSpaceOnUse">
<stop stop-color="#147714"/>
<stop offset="1" stop-color="#157E15"/>
</linearGradient>
<linearGradient id="paint4_linear_1_205" x1="266.775" y1="9.51007" x2="266.775" y2="53.6507" gradientUnits="userSpaceOnUse">
<stop stop-color="#147714"/>
<stop offset="1" stop-color="#157E15"/>
</linearGradient>
<linearGradient id="paint5_linear_1_205" x1="296.673" y1="17.1498" x2="296.673" y2="53.6507" gradientUnits="userSpaceOnUse">
<stop stop-color="#147714"/>
<stop offset="1" stop-color="#157E15"/>
</linearGradient>
<linearGradient id="paint6_linear_1_205" x1="331.019" y1="17.2151" x2="331.019" y2="52.6712" gradientUnits="userSpaceOnUse">
<stop stop-color="#147714"/>
<stop offset="1" stop-color="#157E15"/>
</linearGradient>
</defs>
</svg>
