<svg width="28" height="21" viewBox="0 0 28 21" fill="none" xmlns="http://www.w3.org/2000/svg">
<path d="M27.127 5.12109C27.127 7.17448 26.6816 9.04232 25.791 10.7246C24.9004 12.3822 23.8242 13.7923 22.5625 14.9551C21.2266 16.2168 19.8411 17.2806 18.4062 18.1465C16.9961 18.9876 15.8086 19.6432 14.8438 20.1133L13.7305 17.7754C14.8438 17.1816 15.8952 16.6126 16.8848 16.0684C17.8743 15.4993 18.765 14.8685 19.5566 14.1758C20.3483 13.5078 21.041 12.7409 21.6348 11.875C22.2285 11.0091 22.6986 9.95768 23.0449 8.7207H21.4492C19.8906 8.7207 18.765 8.33724 18.0723 7.57031C17.4043 6.80339 17.0703 5.94987 17.0703 5.00977C17.0703 3.82227 17.528 2.69661 18.4434 1.63281C19.3587 0.544271 20.6081 0 22.1914 0C23.8737 0 25.1107 0.470052 25.9023 1.41016C26.7188 2.35026 27.127 3.58724 27.127 5.12109ZM13.3965 5.12109C13.3965 7.17448 12.9512 9.04232 12.0605 10.7246C11.1699 12.3822 10.0938 13.7923 8.83203 14.9551C7.49609 16.2168 6.11068 17.2806 4.67578 18.1465C3.26562 18.9876 2.07812 19.6432 1.11328 20.1133L0 17.7754C1.11328 17.1816 2.16471 16.6126 3.1543 16.0684C4.14388 15.4993 5.03451 14.8685 5.82617 14.1758C6.61784 13.5078 7.31055 12.7409 7.9043 11.875C8.49805 11.0091 8.9681 9.95768 9.31445 8.7207H7.71875C6.16016 8.7207 5.03451 8.33724 4.3418 7.57031C3.67383 6.80339 3.33984 5.94987 3.33984 5.00977C3.33984 3.82227 3.79753 2.69661 4.71289 1.63281C5.62826 0.544271 6.8776 0 8.46094 0C10.1432 0 11.3802 0.470052 12.1719 1.41016C12.9883 2.35026 13.3965 3.58724 13.3965 5.12109Z" fill="#107910"/>
</svg>
