<svg width="416" height="61" viewBox="0 0 416 61" fill="none" xmlns="http://www.w3.org/2000/svg">
<path d="M87.9868 9.55112C93.7764 9.55112 98.2602 10.7482 101.438 13.1424C104.659 15.5367 106.27 19.1279 106.27 23.9164C106.27 28.9224 104.659 32.688 101.438 35.2128C98.2165 37.694 93.9288 38.9347 88.5745 38.9347H83.2854V54.6712H74.6663V9.55112H87.9868ZM87.9215 32.4703C91.0123 32.4703 93.3411 31.8392 94.9082 30.5767C96.4754 29.2708 97.2589 27.0507 97.2589 23.9164C97.2589 18.5621 94.1465 15.8849 87.9215 15.8849H83.2854V32.4703H87.9215Z" fill="#3D3D3D"/>
<path d="M139.346 36.584C139.346 37.0193 139.281 38.1512 139.15 39.9795H117.472C117.733 43.3314 118.604 45.7256 120.084 47.1621C121.564 48.5986 123.523 49.3169 125.96 49.3169C127.484 49.3169 128.921 49.0775 130.27 48.5986C131.619 48.0763 133.056 47.2927 134.58 46.248L138.04 51.0146C134.21 54.1054 129.943 55.6507 125.242 55.6507C119.975 55.6507 115.905 54.0401 113.032 50.8187C110.202 47.5974 108.787 43.2008 108.787 37.6288C108.787 34.1028 109.397 30.9467 110.616 28.1608C111.834 25.3312 113.597 23.1329 115.905 21.5658C118.212 19.9552 120.954 19.1498 124.132 19.1498C128.964 19.1498 132.708 20.6951 135.363 23.7859C138.018 26.833 139.346 31.0991 139.346 36.584ZM131.054 34.1681C131.054 28.1173 128.812 25.0918 124.328 25.0918C122.282 25.0918 120.671 25.8535 119.496 27.3772C118.364 28.8572 117.69 31.2515 117.472 34.5598H131.054V34.1681Z" fill="#3D3D3D"/>
<path d="M166.628 53.0388C165.41 53.9095 164.038 54.5625 162.515 54.9977C161.035 55.4329 159.511 55.6507 157.944 55.6507C154.548 55.6072 151.958 54.6494 150.174 52.7776C148.432 50.8622 147.562 48.0544 147.562 44.3543V26.1366H142.142V20.1293H147.562V12.4895L155.92 11.5101V20.1293H163.951L163.102 26.1366H155.92V44.1584C155.92 45.8562 156.203 47.075 156.769 47.8151C157.378 48.5552 158.314 48.9251 159.576 48.9251C160.839 48.9251 162.21 48.5115 163.69 47.6845L166.628 53.0388Z" fill="#3D3D3D"/>
<path d="M230.685 54.6712H222.262L221.086 35.8004C220.694 29.053 220.498 23.6987 220.498 19.7374V17.3867L212.271 49.7739H204.109L195.359 17.3214C195.446 20.1945 195.489 22.3711 195.489 23.8511C195.489 27.8124 195.359 31.8826 195.098 36.0616L193.988 54.6712H185.63L189.221 9.55112H200.322L208.353 41.1548L215.928 9.55112H227.159L230.685 54.6712Z" fill="url(#paint0_linear_1_204)"/>
<path d="M252.835 19.1498C257.928 19.1498 261.889 20.7822 264.719 24.0471C267.592 27.2684 269.029 31.7086 269.029 37.3676C269.029 40.9808 268.376 44.1803 267.07 46.9662C265.764 49.7087 263.893 51.8416 261.454 53.3653C259.016 54.889 256.122 55.6507 252.77 55.6507C247.676 55.6507 243.693 54.0401 240.82 50.8187C237.947 47.5539 236.511 43.0702 236.511 37.3676C236.511 33.7544 237.164 30.5767 238.47 27.8343C239.776 25.0918 241.647 22.9589 244.085 21.4352C246.566 19.9115 249.482 19.1498 252.835 19.1498ZM252.835 25.4836C247.83 25.4836 245.326 29.4449 245.326 37.3676C245.326 41.4595 245.936 44.4849 247.154 46.4438C248.417 48.3593 250.288 49.3169 252.77 49.3169C255.251 49.3169 257.102 48.3374 258.32 46.3785C259.583 44.4196 260.213 41.416 260.213 37.3676C260.213 33.3192 259.583 30.3374 258.32 28.422C257.102 26.463 255.273 25.4836 252.835 25.4836Z" fill="url(#paint1_linear_1_204)"/>
<path d="M295.278 19.1498C298.367 19.1498 300.763 20.0858 302.461 21.9576C304.201 23.7859 305.072 26.3543 305.072 29.6626V54.6712H296.714V30.9685C296.714 28.9225 296.343 27.486 295.604 26.6589C294.907 25.8319 293.862 25.4183 292.47 25.4183C291.034 25.4183 289.728 25.8754 288.552 26.7895C287.42 27.6602 286.31 28.9443 285.222 30.642V54.6712H276.864V20.1293H284.112L284.765 24.6347C287.593 20.9781 291.099 19.1498 295.278 19.1498Z" fill="url(#paint2_linear_1_204)"/>
<path d="M323.161 20.1293V54.6712H314.803V20.1293H323.161ZM318.917 2.62974C320.484 2.62974 321.747 3.13036 322.704 4.13156C323.706 5.08926 324.206 6.28635 324.206 7.72288C324.206 9.15941 323.706 10.3565 322.704 11.3142C321.747 12.2719 320.484 12.7507 318.917 12.7507C317.395 12.7507 316.132 12.2719 315.13 11.3142C314.173 10.3565 313.693 9.15941 313.693 7.72288C313.693 6.28635 314.173 5.08926 315.13 4.13156C316.132 3.13036 317.395 2.62974 318.917 2.62974Z" fill="url(#paint3_linear_1_204)"/>
<path d="M353.018 53.0388C351.798 53.9095 350.427 54.5625 348.905 54.9977C347.423 55.4329 345.901 55.6507 344.334 55.6507C340.938 55.6072 338.347 54.6494 336.563 52.7776C334.821 50.8622 333.952 48.0544 333.952 44.3543V26.1366H328.532V20.1293H333.952V12.4895L342.31 11.5101V20.1293H350.341L349.492 26.1366H342.31V44.1584C342.31 45.8562 342.591 47.075 343.158 47.8151C343.767 48.5552 344.703 48.9251 345.966 48.9251C347.227 48.9251 348.598 48.5115 350.08 47.6845L353.018 53.0388Z" fill="url(#paint4_linear_1_204)"/>
<path d="M370.738 19.1498C375.831 19.1498 379.794 20.7822 382.622 24.0471C385.495 27.2684 386.932 31.7086 386.932 37.3676C386.932 40.9808 386.279 44.1803 384.973 46.9662C383.667 49.7087 381.796 51.8416 379.357 53.3653C376.921 54.889 374.026 55.6507 370.673 55.6507C365.58 55.6507 361.597 54.0401 358.724 50.8187C355.851 47.5539 354.414 43.0702 354.414 37.3676C354.414 33.7544 355.067 30.5767 356.373 27.8343C357.679 25.0918 359.552 22.9589 361.988 21.4352C364.47 19.9115 367.388 19.1498 370.738 19.1498ZM370.738 25.4836C365.733 25.4836 363.229 29.4449 363.229 37.3676C363.229 41.4595 363.839 44.4849 365.057 46.4438C366.321 48.3593 368.192 49.3169 370.673 49.3169C373.154 49.3169 375.005 48.3374 376.223 46.3785C377.486 44.4196 378.117 41.416 378.117 37.3676C378.117 33.3192 377.486 30.3374 376.223 28.422C375.005 26.463 373.177 25.4836 370.738 25.4836Z" fill="url(#paint5_linear_1_204)"/>
<path d="M411.81 19.2151C413.071 19.2151 414.226 19.3675 415.27 19.6722L413.834 27.7689C412.789 27.5078 411.765 27.3772 410.765 27.3772C408.718 27.3772 407.108 28.1173 405.933 29.5973C404.758 31.0338 403.821 33.2539 403.125 36.2575V54.6712H394.767V20.1292H402.015L402.799 26.9201C403.625 24.4388 404.823 22.5452 406.39 21.2393C407.957 19.8899 409.763 19.2151 411.81 19.2151Z" fill="url(#paint6_linear_1_204)"/>
<path d="M26.3296 12.1027V13.1694C26.3296 13.977 26.4461 14.7805 26.6757 15.5548L26.9583 16.509C27.1223 17.0624 27.406 17.5729 27.7896 18.0043C28.5356 18.8437 29.6052 19.3239 30.7283 19.3239H31.5956H32.1249C33.5041 19.3239 34.8598 18.9688 36.0619 18.2926C37.1644 17.6725 38.1048 16.8006 38.8064 15.7481L39.3404 14.9471C39.8899 14.1228 40.3357 13.2338 40.6677 12.3004L41.365 10.339C41.7343 9.30011 41.9233 8.20568 41.9233 7.10312V6.44275C41.9233 5.8192 41.8204 5.19993 41.6192 4.60977C41.3752 3.89468 40.9909 3.23547 40.489 2.67078L40.4616 2.64001C39.8264 1.92521 39.0263 1.37615 38.1307 1.04036L37.6831 0.872468C37.1397 0.668681 36.564 0.564308 35.9837 0.564308C35.4034 0.564308 34.8278 0.668681 34.2844 0.872468L33.067 1.32895C32.6717 1.4772 32.2883 1.6556 31.9204 1.86259C31.1242 2.3104 30.4082 2.88748 29.8011 3.5702L29.6028 3.79339C29.1769 4.27249 28.798 4.79133 28.4713 5.3428L27.9334 6.25035C27.4513 7.06417 27.0713 7.93447 26.8026 8.84146C26.489 9.90015 26.3296 10.9985 26.3296 12.1027Z" fill="#107910"/>
<path d="M37.0932 27.0158L37.2979 27.7065C37.5811 28.6625 38.2257 29.4708 39.0948 29.9597C39.3604 30.1093 39.6433 30.2264 39.9367 30.309L41.1226 30.6424C42.3459 30.9865 43.647 30.9314 44.8368 30.4853C45.3683 30.286 45.8689 30.0117 46.3233 29.6712L47.185 29.0247C47.9074 28.483 48.5734 27.87 49.1733 27.1952L49.6179 26.6948C50.4735 25.7325 51.2346 24.6902 51.8911 23.5824L52.6595 22.2859L53.0121 21.4925C53.3582 20.7137 53.5372 19.8707 53.5372 19.0186V18.8562C53.5372 17.8697 53.2717 16.9014 52.7689 16.0528L52.7281 15.9839C52.1157 14.9505 51.1687 14.1572 50.044 13.7354C49.452 13.5135 48.8252 13.3998 48.193 13.3998H47.7129C46.3527 13.3998 45.0157 13.75 43.8302 14.4168L43.4966 14.6045C42.5904 15.1143 41.7752 15.7712 41.0843 16.5483L39.4949 18.3365L39.236 18.6276C37.7066 20.3482 36.8618 22.5701 36.8618 24.8721V25.4214C36.8618 25.9611 36.9398 26.4981 37.0932 27.0158Z" fill="#107910"/>
<path d="M45.6742 32.6432L45.1618 32.7873C44.3148 33.0254 43.5113 33.3978 42.782 33.8902L41.0457 35.062C40.0216 35.7534 39.1423 36.6377 38.4569 37.6657L38.0119 38.3334C37.262 39.4581 36.8618 40.7796 36.8618 42.1314C36.8618 43.3596 37.1924 44.5654 37.8184 45.6219L38.2404 46.3341C38.491 46.7569 38.7815 47.1548 39.1082 47.5221L39.6296 48.1087C40.1175 48.6576 40.7319 49.0792 41.4195 49.3371C42.442 49.7205 43.5688 49.7205 44.5913 49.3371L44.9102 49.2175C45.3932 49.0363 45.8479 48.7874 46.2605 48.4779L47.185 47.7845C47.9074 47.2427 48.5734 46.6298 49.1733 45.955L50.1119 44.899C50.639 44.3062 51.1077 43.6643 51.5122 42.9819L51.9631 42.2208C52.4237 41.4438 52.7405 40.5902 52.8985 39.7008L53.1048 38.5407C53.3778 37.005 52.9326 35.4287 51.8962 34.2628C51.2485 33.5341 50.4054 33.0066 49.4669 32.7426L49.1131 32.6432C47.9886 32.3269 46.7988 32.3269 45.6742 32.6432Z" fill="#107910"/>
<path d="M12.3547 17.5927L13.5937 18.4291C14.4577 19.0123 15.4764 19.3239 16.519 19.3239C17.7531 19.3239 18.9474 18.8874 19.8905 18.0916L20.7302 17.383C21.5299 16.7084 22.1935 15.8876 22.6858 14.9646L23.5184 13.4036C24.2185 12.0907 24.7372 10.6887 25.06 9.23621C25.32 8.06605 25.4512 6.87094 25.4512 5.67226V5.50102V4.36975C25.4512 3.81365 25.3344 3.26373 25.1086 2.75556C24.7613 1.97385 24.1707 1.32509 23.4251 0.905681L23.149 0.750295C22.9289 0.626456 22.6995 0.519716 22.4628 0.431015L22.37 0.396142C20.9614 -0.132047 19.4092 -0.132047 18.0006 0.396142C17.7023 0.508044 17.4127 0.642739 17.135 0.799023L16.9485 0.903967C16.1862 1.33274 15.5005 1.88527 14.9194 2.53896L13.1641 4.51365L12.1947 5.60427C11.6727 6.19153 11.2231 6.83938 10.8557 7.53389C10.4221 8.35326 10.1069 9.22991 9.91942 10.1377L9.81864 10.6257C9.70888 11.1573 9.65356 11.6986 9.65356 12.2413V12.5105C9.65356 13.1003 9.73865 13.687 9.9062 14.2524C10.3102 15.6161 11.1758 16.797 12.3547 17.5927Z" fill="#107910"/>
<path d="M0 31.8406V34.3255C0 35.1385 0.136041 35.9457 0.402493 36.714C0.716182 37.6183 1.20495 38.4519 1.84088 39.1673L3.32536 40.8375C4.60725 42.2795 6.15254 43.4638 7.87833 44.3267L8.66606 44.7206C11.5592 46.1671 13.8037 48.6471 14.9552 51.67C15.5121 53.132 16.3303 54.4806 17.3697 55.65L19.7084 58.2809C21.1286 59.8786 23.1642 60.7927 25.3019 60.7927C27.6113 60.7927 29.7916 59.7264 31.2094 57.9034L32.9001 55.7296C34.344 53.8733 35.2621 51.663 35.5583 49.3301L35.9834 45.9824V38.527C35.9834 36.9213 35.7834 35.3217 35.3882 33.7652L35.2037 33.0386C34.5626 30.5149 33.3252 28.1817 31.5952 26.2355L29.84 24.2609L29.68 24.0809C28.6283 22.8978 27.3383 21.9502 25.8946 21.3007C24.4457 20.6485 22.8747 20.3114 21.2857 20.3114H19.3082H12.8059C11.8769 20.3114 10.9499 20.3976 10.0368 20.5688L8.91424 20.7791C7.09812 21.1197 5.4012 21.9251 3.98895 23.1167C3.09108 23.8742 2.32417 24.7747 1.71906 25.7815L1.64744 25.9006C0.569489 27.6945 0 29.7478 0 31.8406Z" fill="#107910"/>
<defs>
<linearGradient id="paint0_linear_1_204" x1="208.157" y1="9.55112" x2="208.157" y2="54.6712" gradientUnits="userSpaceOnUse">
<stop stop-color="#147714"/>
<stop offset="1" stop-color="#157E15"/>
</linearGradient>
<linearGradient id="paint1_linear_1_204" x1="252.77" y1="19.1498" x2="252.77" y2="55.6507" gradientUnits="userSpaceOnUse">
<stop stop-color="#147714"/>
<stop offset="1" stop-color="#157E15"/>
</linearGradient>
<linearGradient id="paint2_linear_1_204" x1="290.968" y1="19.1498" x2="290.968" y2="54.6712" gradientUnits="userSpaceOnUse">
<stop stop-color="#147714"/>
<stop offset="1" stop-color="#157E15"/>
</linearGradient>
<linearGradient id="paint3_linear_1_204" x1="318.95" y1="2.62974" x2="318.95" y2="54.6712" gradientUnits="userSpaceOnUse">
<stop stop-color="#147714"/>
<stop offset="1" stop-color="#157E15"/>
</linearGradient>
<linearGradient id="paint4_linear_1_204" x1="340.775" y1="11.5101" x2="340.775" y2="55.6507" gradientUnits="userSpaceOnUse">
<stop stop-color="#147714"/>
<stop offset="1" stop-color="#157E15"/>
</linearGradient>
<linearGradient id="paint5_linear_1_204" x1="370.673" y1="19.1498" x2="370.673" y2="55.6507" gradientUnits="userSpaceOnUse">
<stop stop-color="#147714"/>
<stop offset="1" stop-color="#157E15"/>
</linearGradient>
<linearGradient id="paint6_linear_1_204" x1="405.019" y1="19.2151" x2="405.019" y2="54.6712" gradientUnits="userSpaceOnUse">
<stop stop-color="#147714"/>
<stop offset="1" stop-color="#157E15"/>
</linearGradient>
</defs>
</svg>
