<svg width="31" height="22" viewBox="0 0 31 22" fill="none" xmlns="http://www.w3.org/2000/svg">
<path d="M30.9869 7.67665C29.6889 7.81718 28.4559 7.99571 27.2878 8.21225C26.1516 8.41448 25.1425 8.66518 24.2606 8.96437C23.2191 9.33507 22.2986 9.80488 21.4992 10.3738C20.6998 10.9427 19.8859 11.7577 19.0578 12.8187L20.5488 13.3872C22.0051 13.9425 22.9087 14.6974 23.2596 15.652C23.6336 16.6154 23.6532 17.5363 23.3182 18.4147C22.8952 19.5243 22.0621 20.4246 20.819 21.1156C19.5847 21.7835 18.2278 21.8354 16.7483 21.2713C15.1764 20.6719 14.1765 19.7876 13.7486 18.6183C13.3438 17.4579 13.4147 16.161 13.9611 14.7278C14.6751 12.8554 15.7274 11.3106 17.1182 10.0934C18.509 8.87626 20.0462 7.90021 21.7296 7.16531C23.3724 6.46782 24.9865 5.98445 26.5718 5.7152C28.1803 5.45476 29.5829 5.24821 30.7796 5.09553L30.9869 7.67665ZM18.1574 2.78489C16.8594 2.92542 15.6264 3.10396 14.4583 3.32049C13.3221 3.52272 12.313 3.77343 11.4311 4.07261C10.3896 4.44331 9.46907 4.91312 8.66965 5.48205C7.87023 6.05098 7.05643 6.86595 6.22824 7.92697L7.71924 8.49548C9.17557 9.05076 10.0792 9.80569 10.4301 10.7603C10.8041 11.7237 10.8237 12.6446 10.4887 13.523C10.0657 14.6326 9.23256 15.5329 7.98944 16.2239C6.75514 16.8917 5.39827 16.9436 3.91883 16.3795C2.34692 15.7802 1.34702 14.8959 0.919114 13.7266C0.514325 12.5661 0.585164 11.2693 1.13163 9.83608C1.84556 7.96367 2.89792 6.41887 4.28872 5.20168C5.67951 3.9845 7.21665 3.00846 8.90013 2.27355C10.5429 1.57607 12.1569 1.0927 13.7423 0.823444C15.3508 0.563005 16.7534 0.356449 17.9501 0.203776L18.1574 2.78489Z" fill="#107910"/>
</svg>
