<svg width="31" height="23" viewBox="0 0 31 23" fill="none" xmlns="http://www.w3.org/2000/svg">
<path d="M29.9752 11.2642C29.3801 13.2295 28.4125 14.8881 27.0725 16.24C25.7397 17.5683 24.301 18.606 22.7564 19.3531C21.1121 20.1734 19.4778 20.79 17.8535 21.2028C16.2601 21.5992 14.9336 21.8824 13.8739 22.0526L13.486 19.4924C14.7236 19.2468 15.8948 19.007 16.9997 18.7729C18.1117 18.5152 19.147 18.1695 20.1054 17.736C21.0567 17.3262 21.942 16.793 22.7612 16.1363C23.5805 15.4797 24.3351 14.6097 25.0251 13.5262L23.4979 13.0637C22.0062 12.6119 21.04 11.9186 20.5993 10.9839C20.1823 10.0563 20.1101 9.14257 20.3826 8.24282C20.7268 7.1063 21.4911 6.16162 22.6755 5.4088C23.867 4.6323 25.2205 4.47351 26.7359 4.93243C28.346 5.42003 29.3936 6.22844 29.8788 7.35765C30.3877 8.49403 30.4198 9.79623 29.9752 11.2642ZM16.8342 7.28453C16.239 9.24977 15.2714 10.9084 13.9314 12.2603C12.5986 13.5886 11.1599 14.6263 9.61532 15.3734C7.97103 16.1937 6.33675 16.8103 4.71247 17.2231C3.11905 17.6195 1.7925 17.9027 0.732832 18.0729L0.344966 15.5127C1.58255 15.2671 2.75378 15.0273 3.85863 14.7932C4.97066 14.5355 6.00591 14.1898 6.96437 13.7563C7.91566 13.3465 8.80092 12.8133 9.62016 12.1566C10.4394 11.5 11.194 10.63 11.884 9.54647L10.3568 9.08396C8.86514 8.63221 7.89896 7.93894 7.45827 7.00416C7.04127 6.07655 6.96901 5.16287 7.24149 4.26312C7.58568 3.12659 8.34998 2.18192 9.53439 1.42909C10.726 0.652594 12.0794 0.493804 13.5948 0.952725C15.2049 1.44033 16.2525 2.24874 16.7377 3.37794C17.2466 4.51432 17.2788 5.81652 16.8342 7.28453Z" fill="#107910"/>
</svg>
