<svg width="60" height="60" viewBox="0 0 60 60" fill="none" xmlns="http://www.w3.org/2000/svg">
<path d="M30 2.3999C14.7715 2.3999 2.40002 14.7713 2.40002 29.9999C2.40002 34.8948 3.74245 39.463 5.98127 43.4507L2.44456 56.0765C2.38805 56.2785 2.3855 56.4918 2.43715 56.6952C2.4888 56.8985 2.59285 57.0847 2.73893 57.2353C2.885 57.3859 3.068 57.4956 3.26967 57.5534C3.47134 57.6112 3.68464 57.6151 3.88831 57.5647L17.0532 54.3022C20.9216 56.3674 25.3111 57.5999 30 57.5999C45.2286 57.5999 57.6 45.2285 57.6 29.9999C57.6 14.7713 45.2286 2.3999 30 2.3999ZM30 4.7999C43.9315 4.7999 55.2 16.0685 55.2 29.9999C55.2 43.9313 43.9315 55.1999 30 55.1999C25.5337 55.1999 21.3506 54.0355 17.7141 52.0007C17.4481 51.8521 17.1356 51.8102 16.8399 51.8835L5.31096 54.7405L8.40237 43.7108C8.4466 43.555 8.45882 43.3918 8.43827 43.231C8.41773 43.0703 8.36486 42.9154 8.28284 42.7757C6.07285 39.0282 4.80002 34.668 4.80002 29.9999C4.80002 16.0685 16.0686 4.7999 30 4.7999ZM19.9711 15.5999C19.2019 15.5999 18.1033 15.8861 17.2008 16.8585C16.6587 17.4426 14.4 19.6433 14.4 23.5124C14.4 27.5462 17.1977 31.0269 17.536 31.4741H17.5383V31.4765C17.5062 31.4343 17.9677 32.1025 18.5836 32.9038C19.1996 33.7051 20.0609 34.7575 21.143 35.8968C23.3072 38.1754 26.35 40.8088 30.1266 42.4194C31.8658 43.16 33.2378 43.6072 34.2774 43.9335C36.2038 44.5384 37.9585 44.4465 39.2766 44.2522C40.2632 44.107 41.3483 43.6332 42.4219 42.9538C43.4955 42.2744 44.5477 41.4296 45.0117 40.146C45.3442 39.2258 45.5131 38.3754 45.5742 37.6757C45.6048 37.3258 45.6087 37.017 45.586 36.7312C45.5632 36.4453 45.5875 36.2263 45.3211 35.789C44.7624 34.8717 44.1297 34.8477 43.4696 34.521C43.1028 34.3395 42.0584 33.8295 41.011 33.3304C39.9647 32.8318 39.0587 32.3902 38.5008 32.1913C38.1483 32.0645 37.7179 31.8819 37.0969 31.9522C36.4759 32.0226 35.8626 32.4706 35.5055 32.9999C35.167 33.5016 33.8045 35.1099 33.3891 35.5827C33.3836 35.5794 33.4196 35.596 33.2555 35.5147C32.7417 35.2605 32.1134 35.0443 31.1836 34.5538C30.2538 34.0633 29.0907 33.3391 27.818 32.2171V32.2147C25.9237 30.547 24.5968 28.4532 24.1782 27.7499C24.2063 27.7164 24.1748 27.757 24.2344 27.6983L24.2367 27.696C24.6646 27.2746 25.0437 26.7713 25.3641 26.4022C25.8183 25.8789 26.0188 25.4176 26.236 24.9866C26.6688 24.1276 26.4278 23.1824 26.1774 22.6851V22.6827C26.1947 22.7171 26.0419 22.3801 25.8774 21.9913C25.7124 21.6014 25.502 21.096 25.2774 20.5569C24.8281 19.4789 24.3265 18.2698 24.0282 17.5616V17.5593C23.6767 16.7251 23.2013 16.1242 22.5797 15.8343C21.9581 15.5444 21.409 15.6268 21.3867 15.6257H21.3844C20.9408 15.6052 20.4541 15.5999 19.9711 15.5999ZM19.9711 17.9999C20.4338 17.9999 20.8899 18.0055 21.2719 18.0233C21.6649 18.0429 21.6404 18.0445 21.5649 18.0093C21.4881 17.9735 21.5923 17.9618 21.8157 18.4921C22.1077 19.1855 22.6118 20.399 23.0625 21.4804C23.2879 22.0211 23.4988 22.5285 23.6672 22.9265C23.8357 23.3244 23.9269 23.5467 24.0328 23.7585V23.7608L24.0352 23.7632C24.139 23.9681 24.1298 23.8369 24.0938 23.9085C23.8405 24.4111 23.8062 24.5345 23.55 24.8296C23.16 25.2789 22.7622 25.78 22.5516 25.9874C22.3674 26.1684 22.0349 26.4503 21.8274 27.0022C21.6195 27.555 21.7165 28.3134 22.05 28.8796C22.4941 29.6334 23.9573 32.0151 26.2313 34.0171C27.6633 35.2795 28.9975 36.115 30.0633 36.6772C31.1291 37.2395 31.9972 37.5678 32.1914 37.664C32.6527 37.8922 33.1568 38.0695 33.743 37.9991C34.3292 37.9287 34.8346 37.5731 35.1563 37.2093L35.1586 37.2069C35.5868 36.7215 36.859 35.2688 37.4696 34.3733C37.4954 34.3825 37.487 34.3754 37.6899 34.4483V34.4507H37.6922C37.7849 34.4837 38.9452 35.003 39.9797 35.496C41.0143 35.989 42.0643 36.5014 42.4055 36.6702C42.8979 36.9139 43.1306 37.0726 43.1907 37.0733C43.1947 37.1789 43.1988 37.2933 43.1836 37.4671C43.1415 37.9491 43.0127 38.6162 42.7547 39.3304C42.6283 39.68 41.97 40.4011 41.1399 40.9265C40.3097 41.4518 39.2992 41.8229 38.925 41.878C37.7999 42.0438 36.464 42.1043 34.9969 41.6437C33.9796 41.3243 32.7112 40.911 31.0688 40.2116C27.7378 38.791 24.9067 36.3737 22.8844 34.2444C21.8732 33.1798 21.0631 32.1887 20.4867 31.439C19.9115 30.6906 19.6603 30.3012 19.4508 30.0257L19.4485 30.0233C19.0767 29.5317 16.8 26.3649 16.8 23.5124C16.8 20.4935 18.2022 19.3096 18.961 18.4921C19.3593 18.0629 19.7948 17.9999 19.9711 17.9999Z" fill="#107910"/>
</svg>
